# xmcd CD database file
#
# Track frame offsets:
#	150
#	19076
#	41879
#
# Disc length: 813 seconds
#
# Revision: 0
# Processed by: cddbd v1.5.1PL0 Copyright (c) Steve Scherf et al.
# Submitted via: CDex 1.51
#
DISCID=1f032b03
DTITLE=sweep - MEETS
DYEAR=2005
DGENRE=Rock
TTITLE0=月影
TTITLE1=すべてのものの中で
TTITLE2=クチブエは空へ
EXTD=YEAR: 2005
EXTT0=
EXTT1=
EXTT2=
PLAYORDER=
